<svg viewBox="75 75 500 500" width="300" height="300" class="roots-wrapper" xmlns="http://www.w3.org/2000/svg" xmlns:xlink="http://www.w3.org/1999/xlink">
  <g transform="rotate(0 0 0)">
    <svg viewBoxSize="575" data-root-id="1197297295783"
      xmlns="http://www.w3.org/2000/svg" id="Layer_1" dataName="Layer 1" viewBox="295 427.9999084472656 828.8076171875 663.5732421875" height="92.0625" width="115" y="241.468755859375" x="83.1199951171875" preserveAspectRatio="xMinYMin" zoom="1" editorType="buyer" data-layer-role="icon" style="position: absolute; height: 92.0625px; width: 115px; top: 241.469px; left: 83.12px;">
      <path class="cls-1" d="M905.72,508.36c-.13,1.23-.28,2.44-.47,3.65a72.82,72.82,0,0,1-28.4,47.25c-.93.7-1.89,1.38-2.85,2a72.52,72.52,0,0,1-40.72,12.44,70.76,70.76,0,0,1-27.06-5,68.13,68.13,0,0,1-10-5.06A77.5,77.5,0,0,1,787,557a98.76,98.76,0,0,1-8.65-8.2,76.43,76.43,0,0,0-21-16.15c-1.44-.74-2.9-1.41-4.37-2s-2.94-1.19-4.44-1.71c-13.43-4.64-27.93-5.2-44.47-5.2s-31,.56-44.48,5.2q-2.24.78-4.44,1.71c-1.46.62-2.92,1.29-4.36,2a76.31,76.31,0,0,0-21,16.15c-.62.66-1.25,1.31-1.88,2-.81.88-1.64,1.74-2.5,2.6s-1.73,1.72-2.63,2.56a78.25,78.25,0,0,0-15,18.88c-.39.72-.78,1.44-1.15,2.16-.73,1.45-1.41,2.9-2,4.37a73,73,0,0,0-3.1,9c-.42,1.52-.8,3-1.13,4.6a127.33,127.33,0,0,0-2.47,22c-.17,4.3-.21,8.74-.21,13.34,0,3.67,0,7.24.12,10.73s.26,6.88.52,10.2.64,6.55,1.15,9.72c.26,1.58.55,3.15.89,4.7s.71,3.08,1.13,4.6c3.36,12.17,9.63,23.4,21.28,34.37,15.89,15,25,31.88,25,54.9,0,1.13,0,2.25-.09,3.37,0,.33,0,.66-.05,1,0,.83-.11,1.65-.19,2.47l-.09,1c-.12,1.09-.25,2.17-.41,3.24,0,.13-.05.25-.07.38-.15.95-.32,1.9-.5,2.84-.07.34-.15.69-.22,1-.16.76-.34,1.51-.52,2.26l-.24,1c-.27,1-.55,2-.86,3-.07.22-.15.44-.22.67-.25.79-.52,1.58-.8,2.36L643,785c-.26.69-.53,1.38-.81,2.06-.13.31-.25.63-.39.94-.4.94-.82,1.86-1.25,2.78l-.39.77c-.34.69-.69,1.38-1.05,2l-.55,1c-.36.64-.73,1.29-1.1,1.92-.17.27-.32.55-.49.82-.49.8-1,1.6-1.52,2.39h0a72.79,72.79,0,0,1-115.21,7.79h0c-.21-.25-.42-.51-.64-.76-.42-.49-.84-1-1.24-1.48s-.58-.74-.88-1.11-.79-1-1.17-1.52-.54-.77-.81-1.15-.76-1-1.12-1.59c-.22-.31-.41-.64-.62-1-.69-1.07-1.36-2.16-2-3.26-.27-.47-.54-.93-.8-1.4s-.52-1-.78-1.51-.53-1-.78-1.51-.47-1-.71-1.52-.48-1-.71-1.57-.42-1-.63-1.55-.44-1.08-.64-1.62-.38-1-.57-1.57l-.57-1.68c-.16-.52-.33-1-.48-1.58s-.34-1.16-.5-1.74-.28-1.06-.41-1.59-.29-1.2-.42-1.8-.23-1.06-.33-1.59-.23-1.26-.34-1.89-.18-1-.25-1.55c-.1-.67-.18-1.35-.26-2-.06-.49-.13-1-.17-1.47-.08-.76-.13-1.52-.18-2.29,0-.42-.07-.84-.09-1.26-.05-1.19-.09-2.39-.09-3.6,0-23,9.08-39.94,25-54.9,11.65-11,17.92-22.2,21.28-34.37.42-1.52.8-3,1.13-4.6s.63-3.12.88-4.7c.52-3.17.89-6.41,1.15-9.72s.43-6.72.53-10.2.12-7.06.12-10.73c0-4.6,0-9-.21-13.34a127.33,127.33,0,0,0-2.47-22c-.33-1.55-.71-3.08-1.13-4.6a73,73,0,0,0-3.1-9c-.62-1.47-1.3-2.92-2-4.37-.36-.72-.75-1.44-1.15-2.16a78,78,0,0,0-15-18.88l-.46-.44a73.07,73.07,0,0,1-14.29-17.22c-.68-1.1-1.33-2.22-1.95-3.35a67.28,67.28,0,0,1-3.3-7,68.56,68.56,0,0,1-4.63-19.45v-.08h0v-.05c-.13-1.22-.22-2.44-.28-3.67s-.09-2.47-.09-3.72h0A72.61,72.61,0,0,1,525.88,447q1.29-1.17,2.64-2.28a73.92,73.92,0,0,1,69.69-13,65.5,65.5,0,0,1,11.27,5q2.16,1.2,4.23,2.57a72.7,72.7,0,0,1,6.32,4.54,70.7,70.7,0,0,1,5.84,5.09q1.85,1.81,3.56,3.75l.31.33c1.37,1.45,2.75,2.83,4.13,4.12a74.13,74.13,0,0,0,14.75,10.87c16.49,9.18,34.31,10.1,55.44,10.1s38.94-.92,55.44-10.1a74.13,74.13,0,0,0,14.75-10.87c1.38-1.29,2.76-2.67,4.13-4.12,15-15.89,31.87-25,54.9-25a72.51,72.51,0,0,1,46.32,16.63q1.35,1.11,2.64,2.28a72.65,72.65,0,0,1,23.85,53.9h0A73.25,73.25,0,0,1,905.72,508.36Z" name="Layer %{number}" zoom="1" data-layer-id="8779045895783" style="fill: rgb(236, 221, 251);"/>
      <circle class="cls-1" cx="1069.18" cy="759.42" r="47.58" transform="translate(148.3 1693.15) rotate(-80.78)" name="Layer %{number}" zoom="1" data-layer-id="0303534595783" style="fill: rgb(236, 221, 251);"/>
      <path class="cls-1" d="M785.45,963c23.3-21.94,25.09-44.92,25.09-74.32s-1.79-52.38-25.09-74.32a87.93,87.93,0,0,1-14.75-17.67h0l-.09-.15-.14-.24c-.54-.89-1.06-1.79-1.57-2.7l-.31-.57c-.51-1-1-1.91-1.46-2.88l-.29-.62c-.41-.89-.81-1.78-1.18-2.69-.07-.15-.13-.3-.19-.45-.41-1-.78-2-1.14-3-.08-.26-.17-.51-.26-.77-.34-1-.67-2.08-1-3.15,0-.1-.05-.21-.08-.31-.28-1-.52-2-.75-3l-.18-.77c-.23-1.09-.44-2.2-.62-3.32,0-.22-.07-.45-.1-.67-.16-1-.29-2.06-.41-3.12,0-.19-.05-.39-.07-.58-.11-1.18-.2-2.37-.27-3.58,0-.27,0-.54,0-.82-.05-1.24-.09-2.5-.09-3.79s0-2.46.09-3.68c0-.41.06-.81.09-1.21.05-.81.1-1.62.18-2.43,0-.48.12-1,.18-1.44.09-.71.17-1.43.27-2.14.08-.51.18-1,.26-1.51.12-.67.23-1.35.36-2,.11-.51.23-1,.34-1.53s.29-1.3.45-1.94.28-1,.42-1.53.34-1.25.53-1.87.33-1,.5-1.53.4-1.21.61-1.8.38-1,.57-1.52.45-1.16.69-1.74.43-1,.65-1.49.5-1.13.77-1.69.47-1,.71-1.46l.84-1.64.79-1.43c.3-.53.6-1.06.91-1.58s.57-.94.86-1.4.64-1,1-1.52.61-.91.92-1.36.69-1,1-1.47l1-1.32c.36-.47.72-.94,1.09-1.4l1.07-1.29c.38-.44.76-.89,1.15-1.33s.75-.83,1.13-1.24.8-.85,1.2-1.27.79-.8,1.2-1.2l1.25-1.19c.42-.39.83-.78,1.26-1.16l1.29-1.12c.44-.37.88-.75,1.33-1.11s.88-.7,1.33-1l1.4-1.07c.44-.33.9-.64,1.35-1s1-.69,1.48-1,.9-.58,1.36-.87,1-.66,1.56-1l1.36-.78c.55-.31,1.1-.63,1.65-.92l1.35-.7c.58-.29,1.16-.59,1.75-.87.43-.21.87-.4,1.31-.59.62-.28,1.24-.57,1.87-.83.4-.17.81-.32,1.21-.48.69-.27,1.36-.55,2-.8l1-.34c.77-.27,1.54-.53,2.32-.77l.48-.14a72.32,72.32,0,0,1,13-2.64l.29,0c.95-.1,1.9-.17,2.85-.23l.7-.06h0c1.38-.07,2.76-.12,4.15-.12a72.8,72.8,0,0,1,72.81,72.8c0,23-9.08,40-25,54.91C857.82,836.27,856,859.25,856,888.65S857.82,941,881.12,963c15.89,15,25,31.88,25,54.91a72.81,72.81,0,1,1-145.61,0C760.48,994.85,769.56,977.93,785.45,963Z" name="Layer %{number}" zoom="1" data-layer-id="4311344495783" style="fill: rgb(236, 221, 251);"/>
      <path class="cls-1" d="M914.68,833.75c23.3-22,25.08-44.93,25.08-74.33S938,707,914.68,685.1c-1.22-1.14-2.4-2.3-3.53-3.46l-.08-.08c-1.16-1.14-2.32-2.31-3.46-3.52-16.67-17.71-33.94-23-54.17-24.51-1.54-.11-3.08-.21-4.65-.28h-.28c-1.57-.08-3.14-.13-4.74-.18h-.27c-1.62,0-3.25-.07-4.91-.09h-.17c-1.69,0-3.4,0-5.14,0C803.89,653,780.9,654.73,759,678c-15,15.88-31.87,25-54.9,25a72.62,72.62,0,0,1-53.9-23.86c-1.56-1.72-3-3.52-4.44-5.39a72.47,72.47,0,0,1-14.47-43.56h0A72.62,72.62,0,0,1,637,601.86c.46-1.09.95-2.17,1.46-3.23a73.1,73.1,0,0,1,11.73-17.39,75.16,75.16,0,0,1,7.59-7.23q2.68-2.22,5.6-4.19a74.15,74.15,0,0,1,64.26-8.72,64.43,64.43,0,0,1,6.93,2.82c1.12.53,2.23,1.09,3.32,1.68a73.79,73.79,0,0,1,9.45,6.15c1,.78,2,1.58,3,2.4a100.32,100.32,0,0,1,8.64,8.21,75.26,75.26,0,0,0,23.22,17.2,74,74,0,0,0,15.75,5.21,121.7,121.7,0,0,0,19.46,2.36l2.56.11c4.3.16,8.74.21,13.33.21s9-.05,13.34-.21l2.56-.11a121.7,121.7,0,0,0,19.46-2.36,73.85,73.85,0,0,0,15.75-5.21,75.15,75.15,0,0,0,23.22-17.2l.17-.18L908,582a72.62,72.62,0,0,1,7.74-7.55q2.07-1.74,4.26-3.33t4.52-3a70.86,70.86,0,0,1,6.28-3.57A66.22,66.22,0,0,1,946.82,559a76.26,76.26,0,0,1,15.7-1.56c1.23,0,2.45,0,3.67.09.4,0,.79.07,1.19.09.82.06,1.64.11,2.44.19.48,0,.95.11,1.43.17.72.09,1.44.17,2.15.27l1.51.26c.67.12,1.35.23,2,.36l1.54.34c.64.15,1.29.29,1.92.45s1,.28,1.55.42l1.85.52c.52.16,1,.34,1.54.51s1.2.39,1.78.6,1,.38,1.54.58,1.15.44,1.71.67l1.53.66c.55.25,1.1.49,1.64.75l1.52.74c.52.26,1.05.53,1.57.81s1,.54,1.49.82,1,.57,1.51.86l1.47.9c.49.3,1,.61,1.44.92s1,.65,1.45,1l1.36,1,1.42,1.06c.44.34.87.67,1.29,1s.94.75,1.4,1.14l1.2,1.05c.47.4.92.81,1.38,1.23l1.11,1.07c.46.44.91.88,1.35,1.33l1,1.08c.45.47.89,1,1.32,1.43s.63.72.94,1.08c.43.51.87,1,1.29,1.54.29.35.56.7.84,1.06.43.55.85,1.1,1.27,1.66.24.33.48.68.72,1,.43.59.85,1.19,1.25,1.8.21.31.41.63.61.94.42.65.84,1.31,1.24,2,.16.26.3.53.45.79.43.73.86,1.47,1.26,2.22.09.16.17.33.25.5a71.92,71.92,0,0,1,6.79,18.77.43.43,0,0,0,0,0c.21,1,.4,2,.57,3,0,.15,0,.31.08.46.15.94.27,1.89.38,2.84,0,.24.07.48.1.72.09.9.17,1.81.23,2.73,0,.23.05.46.06.69h0c.1,1.52.16,3,.16,4.59,0,14.84-3.77,27.14-10.71,38a73.12,73.12,0,0,1-13.9,16.54l-.36.34C987.05,707,985.26,730,985.26,759.42s1.79,52.38,25.09,74.33c15.89,15,25,31.87,25,54.9a72.81,72.81,0,1,1-145.61,0C889.71,865.62,898.79,848.7,914.68,833.75Z" name="Layer %{number}" zoom="1" data-layer-id="6634299295783" style="fill: rgb(236, 221, 251);"/>
      <path class="cls-1" d="M342.62,711.84A47.58,47.58,0,1,1,295,759.42,47.59,47.59,0,0,1,342.62,711.84Z" name="Layer %{number}" zoom="1" data-layer-id="0606638495783" style="fill: rgb(236, 221, 251);"/>
      <path class="cls-1" d="M372.78,892.53c-.07-1.29-.11-2.58-.11-3.88,0-14.84,3.78-27.14,10.71-38a73.27,73.27,0,0,1,13.92-16.56l.34-.32c23.31-22,25.09-44.93,25.09-74.33S421,707,397.64,685.11c-9.93-9.36-17.2-19.47-21.25-31.37a72,72,0,0,1-3.72-23.54h0a72.81,72.81,0,1,1,145.62,0h0a72.28,72.28,0,0,1-3.71,23.54c-4.06,11.9-11.33,22-21.26,31.36C470,707,468.23,730,468.23,759.42s1.79,52.38,25.1,74.33c1.21,1.14,2.38,2.3,3.51,3.46l.08.08c1.16,1.14,2.33,2.31,3.47,3.52,21.94,23.31,44.92,25.09,74.32,25.09s52.38-1.78,74.32-25.09c15-15.88,31.88-25,54.91-25a72.81,72.81,0,0,1,0,145.62c-23,0-40-9.08-54.91-25-21.94-23.3-44.92-25.09-74.32-25.09s-52.38,1.79-74.32,25.09l-.34.36a73.3,73.3,0,0,1-16.54,13.9c-10.88,6.94-23.18,10.71-38,10.71a72.81,72.81,0,0,1-72.38-65h0a.17.17,0,0,1,0-.07c-.11-1-.19-2.1-.26-3.16C372.82,893,372.79,892.77,372.78,892.53Z" name="Layer %{number}" zoom="1" data-layer-id="7482942495783" style="fill: rgb(236, 221, 251);"/>
    </svg>
  </g>
  <g transform="rotate(0 0 0)">
    <svg viewBoxSize="575" data-root-id="0443014895783"
      xmlns="http://www.w3.org/2000/svg" x="211.62" y="298.296" viewBox="1.2599999904632568 5.380000114440918 281.739990234375 17.43000030517578" height="17.43000030517578" width="281.739990234375" fontUrl="http://fonts.gstatic.com/s/francoisone/v20/_Xmr-H4zszafZw3A-KPSZutNxgKQu_avAg.ttf" zoom="1" editorType="buyer" data-layer-role="slogan" style="position: absolute; top: 298.296px; left: 211.62px; width: 281.74px; height: 17.43px;">
      <g data-horizontal-grow="left" data-vertical-center="false" zoom="1" root="[object Object]" style="fill: rgb(236, 221, 251);">
        <path d="M8.05 19.60L1.26 19.60L1.26 6.32L3.89 6.10L3.89 17.50L8.32 17.50L8.05 19.60ZM12.08 8.06L9.56 8.17L9.56 5.56L12.08 5.38L12.08 8.06ZM12.06 19.49L9.54 19.71L9.54 9.68L12.06 9.47L12.06 19.49ZM14.27 19.71L14.27 9.68L16.79 9.47L16.79 10.76Q17.57 10.08 18.32 9.71Q19.06 9.34 19.69 9.34L19.69 9.34Q20.65 9.34 21.25 10.04Q21.85 10.73 21.85 11.90L21.85 11.90L21.85 19.49L19.33 19.71L19.33 12.85Q19.33 11.50 18.41 11.50L18.41 11.50Q18.11 11.50 17.74 11.68Q17.37 11.86 16.79 12.20L16.79 12.20L16.79 19.49L14.27 19.71ZM31.61 19.08L29.38 19.84L27.32 14.80L26.50 15.89L26.50 19.60L23.98 19.60L23.98 6.43L26.50 6.10L26.50 12.80L29.07 9.47L31.81 9.47L28.96 13.12L31.61 19.08ZM39.91 19.49L37.39 19.71L37.39 6.43L39.91 6.10L39.91 19.49ZM44.64 8.06L42.12 8.17L42.12 5.56L44.64 5.38L44.64 8.06ZM44.62 19.49L42.10 19.71L42.10 9.68L44.62 9.47L44.62 19.49ZM51.03 22.75L51.03 18.74Q50.71 19.24 50.24 19.54Q49.77 19.84 49.07 19.84L49.07 19.84Q47.88 19.84 47.29 19.00Q46.69 18.16 46.54 17.07Q46.39 15.98 46.39 14.71L46.39 14.71Q46.39 13.25 46.55 12.11Q46.71 10.98 47.30 10.16Q47.90 9.34 49.09 9.34L49.09 9.34Q49.75 9.34 50.22 9.64Q50.69 9.94 51.03 10.46L51.03 10.46L51.12 9.68L53.57 9.47L53.57 22.43L51.03 22.75ZM49.97 17.91Q50.35 17.91 50.61 17.68Q50.87 17.44 51.03 17.10L51.03 17.10L51.03 11.86Q50.83 11.52 50.62 11.34Q50.40 11.16 50.09 11.16L50.09 11.16Q49.50 11.16 49.21 11.95Q48.92 12.74 48.92 14.65L48.92 14.65Q48.92 16.54 49.19 17.23Q49.45 17.91 49.97 17.91L49.97 17.91ZM57.92 19.84Q56.93 19.84 56.30 19.14Q55.67 18.45 55.67 17.28L55.67 17.28L55.67 9.68L58.19 9.47L58.19 16.25Q58.19 16.97 58.43 17.29Q58.66 17.60 59.15 17.60L59.15 17.60Q59.53 17.60 59.96 17.42Q60.39 17.23 60.73 16.81L60.73 16.81L60.73 9.68L63.27 9.47L63.27 19.49L60.73 19.71L60.73 18.41Q60.10 19.13 59.36 19.49Q58.61 19.84 57.92 19.84L57.92 19.84ZM67.99 8.06L65.47 8.17L65.47 5.56L67.99 5.38L67.99 8.06ZM67.97 19.49L65.45 19.71L65.45 9.68L67.97 9.47L67.97 19.49ZM72.65 19.84Q69.73 19.84 69.73 14.54L69.73 14.54Q69.73 11.79 70.45 10.57Q71.17 9.34 72.70 9.34L72.70 9.34Q73.35 9.34 73.94 9.77Q74.54 10.19 74.81 10.82L74.81 10.82L74.81 6.43L77.35 6.10L77.35 19.49L75.44 19.71L74.81 18.34Q74.63 19.01 74.14 19.42Q73.66 19.84 72.65 19.84L72.65 19.84ZM73.58 18.04Q74.12 18.04 74.47 17.43Q74.81 16.83 74.81 15.39L74.81 15.39L74.81 12.01Q74.29 11.20 73.58 11.20L73.58 11.20Q72.99 11.20 72.71 11.62Q72.43 12.04 72.35 12.73Q72.27 13.41 72.27 14.54L72.27 14.54Q72.27 15.70 72.35 16.42Q72.43 17.14 72.72 17.59Q73.01 18.04 73.58 18.04L73.58 18.04ZM82.04 8.06L79.52 8.17L79.52 5.56L82.04 5.38L82.04 8.06ZM82.03 19.49L79.51 19.71L79.51 9.68L82.03 9.47L82.03 19.49ZM87.70 19.80Q86.47 19.80 85.63 19.18Q84.78 18.56 84.78 16.97L84.78 16.97L84.78 11.38L83.38 11.38L83.48 9.47L84.85 9.47L85.10 7.27L87.30 6.97L87.30 9.47L89.39 9.47L89.28 11.38L87.32 11.38L87.32 16.96Q87.32 17.50 87.59 17.73Q87.86 17.96 88.38 17.96L88.38 17.96Q88.67 17.96 89.35 17.86L89.35 17.86L89.35 19.60Q89.28 19.62 88.79 19.71Q88.29 19.80 87.70 19.80L87.70 19.80ZM90.95 22.81Q90.52 22.81 89.89 22.70L89.89 22.70L89.89 20.59Q90.56 20.63 90.95 20.63L90.95 20.63Q92.54 20.63 92.54 19.15L92.54 19.15L92.54 18.65L89.64 9.59L92.38 9.47L93.80 15.82L95.15 9.52L97.43 9.50L94.84 19.42Q94.30 21.37 93.27 22.09Q92.23 22.81 90.95 22.81L90.95 22.81ZM105.66 19.85Q104.65 19.85 103.89 19.39Q103.12 18.92 102.70 18.12Q102.28 17.32 102.28 16.36L102.28 16.36Q102.28 15.07 103.00 14.13Q103.72 13.19 104.85 12.44L104.85 12.44Q104.35 11.74 103.99 10.85Q103.63 9.97 103.63 9.09L103.63 9.09Q103.63 8.15 104.07 7.46Q104.51 6.77 105.26 6.39Q106.02 6.01 106.94 6.01L106.94 6.01Q107.82 6.01 108.54 6.35Q109.26 6.70 109.67 7.34Q110.09 7.99 110.09 8.84L110.09 8.84Q110.09 10.75 107.77 12.40L107.77 12.40L109.40 14.94Q109.64 14.40 109.88 13.69Q110.12 12.98 110.27 12.35L110.27 12.35L112.27 12.98Q111.91 14.67 110.75 16.51L110.75 16.51Q111.17 16.92 111.63 17.15Q112.09 17.39 112.72 17.46L112.72 17.46L112.72 19.73Q111.73 19.73 111.16 19.57Q110.59 19.40 110.27 19.14Q109.94 18.88 109.31 18.25L109.31 18.25Q108.54 18.97 107.60 19.41Q106.65 19.85 105.66 19.85L105.66 19.85ZM106.81 11.07Q106.83 11.02 107.38 10.30Q107.93 9.58 107.93 8.80L107.93 8.80Q107.93 8.33 107.61 8.06Q107.30 7.78 106.92 7.78L106.92 7.78Q106.54 7.78 106.24 8.06Q105.93 8.33 105.93 8.82L105.93 8.82Q105.93 9.16 106.10 9.59Q106.27 10.01 106.61 10.67L106.61 10.67L106.81 11.07ZM106.27 17.53Q106.78 17.53 107.25 17.33Q107.73 17.14 108.07 16.88L108.07 16.88L105.82 13.93Q105.28 14.27 104.99 14.84Q104.69 15.41 104.69 15.98L104.69 15.98Q104.69 16.65 105.10 17.09Q105.52 17.53 106.27 17.53L106.27 17.53ZM122.36 19.85Q120.73 19.85 119.60 18.95Q118.48 18.04 117.95 16.51L117.95 16.51L120.19 15.46L120.40 15.82Q120.92 16.72 121.40 17.23Q121.88 17.73 122.60 17.73L122.60 17.73Q123.07 17.73 123.44 17.28Q123.80 16.83 123.80 16.29L123.80 16.29Q123.80 15.79 123.55 15.37Q123.30 14.96 122.90 14.71L122.90 14.71L120.55 13.30Q119.52 12.73 118.91 11.84Q118.30 10.96 118.30 9.86L118.30 9.86Q118.30 8.69 118.85 7.78Q119.39 6.86 120.34 6.35Q121.28 5.85 122.47 5.85L122.47 5.85Q123.86 5.85 124.83 6.53Q125.80 7.22 126.27 8.57L126.27 8.57L124.04 9.58Q123.97 9.43 123.73 8.93Q123.50 8.42 123.17 8.20Q122.83 7.97 122.35 7.97L122.35 7.97Q121.75 7.97 121.44 8.35Q121.12 8.73 121.12 9.32L121.12 9.32Q121.12 9.76 121.37 10.11Q121.61 10.46 121.95 10.66L121.95 10.66L124.13 11.93Q126.54 13.30 126.67 15.53L126.67 15.53Q126.67 16.81 126.10 17.79Q125.53 18.77 124.55 19.31Q123.57 19.85 122.36 19.85L122.36 19.85ZM131.60 19.60L129.53 19.60L127.46 9.67L130.03 9.47L130.90 15.21L132.17 9.68L134.28 9.47L135.38 15.14L136.48 9.68L138.53 9.58L136.21 19.60L134.17 19.60L133.02 13.03L131.60 19.60ZM141.44 19.84Q140.80 19.84 140.27 19.43Q139.75 19.03 139.46 18.33Q139.18 17.64 139.18 16.78L139.18 16.78Q139.18 14.81 140.52 14.01Q141.86 13.21 143.64 13.10L143.64 13.10Q143.64 12.13 143.51 11.66Q143.39 11.20 142.90 11.20L142.90 11.20Q142.49 11.20 142.27 11.52Q142.06 11.84 142.00 12.35L142.00 12.35L139.54 11.92Q139.72 10.53 140.67 9.94Q141.62 9.34 142.90 9.34L142.90 9.34Q144.54 9.34 145.36 10.21Q146.18 11.07 146.18 12.46L146.18 12.46L146.18 17.69Q146.18 18.54 146.45 19.49L146.45 19.49L143.98 19.71L143.69 18.47Q143.37 19.04 142.74 19.44Q142.11 19.84 141.44 19.84L141.44 19.84ZM142.61 18.04Q142.92 18.04 143.13 17.89Q143.33 17.75 143.64 17.42L143.64 17.42L143.64 14.62Q142.74 14.62 142.20 15.10Q141.66 15.59 141.66 16.61L141.66 16.61Q141.66 17.30 141.90 17.67Q142.15 18.04 142.61 18.04L142.61 18.04ZM148.27 22.75L148.27 9.68L150.79 9.47L150.79 10.46Q151.38 9.86 151.89 9.60Q152.41 9.34 153.09 9.34L153.09 9.34Q154.03 9.34 154.58 9.86Q155.12 10.39 155.37 11.49Q155.61 12.60 155.61 14.45L155.61 14.45Q155.61 16.99 155.03 18.41Q154.44 19.84 152.78 19.84L152.78 19.84Q152.03 19.84 151.58 19.55Q151.13 19.26 150.79 18.74L150.79 18.74L150.79 22.25L148.27 22.75ZM151.88 17.91Q152.48 17.91 152.78 17.21Q153.07 16.51 153.07 14.56L153.07 14.56Q153.07 12.71 152.78 11.93Q152.48 11.16 151.87 11.16L151.87 11.16Q151.24 11.16 150.79 11.86L150.79 11.86L150.79 17.10Q151.15 17.91 151.88 17.91L151.88 17.91ZM163.40 19.84Q162.76 19.84 162.23 19.43Q161.71 19.03 161.42 18.33Q161.14 17.64 161.14 16.78L161.14 16.78Q161.14 14.81 162.48 14.01Q163.82 13.21 165.60 13.10L165.60 13.10Q165.60 12.13 165.47 11.66Q165.35 11.20 164.86 11.20L164.86 11.20Q164.45 11.20 164.23 11.52Q164.02 11.84 163.96 12.35L163.96 12.35L161.50 11.92Q161.68 10.53 162.63 9.94Q163.58 9.34 164.86 9.34L164.86 9.34Q166.50 9.34 167.32 10.21Q168.14 11.07 168.14 12.46L168.14 12.46L168.14 17.69Q168.14 18.54 168.41 19.49L168.41 19.49L165.94 19.71L165.65 18.47Q165.33 19.04 164.70 19.44Q164.07 19.84 163.40 19.84L163.40 19.84ZM164.57 18.04Q164.88 18.04 165.09 17.89Q165.29 17.75 165.60 17.42L165.60 17.42L165.60 14.62Q164.70 14.62 164.16 15.10Q163.62 15.59 163.62 16.61L163.62 16.61Q163.62 17.30 163.86 17.67Q164.11 18.04 164.57 18.04L164.57 18.04ZM173.68 19.80Q172.46 19.80 171.61 19.18Q170.77 18.56 170.77 16.97L170.77 16.97L170.77 11.38L169.36 11.38L169.47 9.47L170.84 9.47L171.09 7.27L173.29 6.97L173.29 9.47L175.37 9.47L175.27 11.38L173.30 11.38L173.30 16.96Q173.30 17.50 173.57 17.73Q173.84 17.96 174.37 17.96L174.37 17.96Q174.65 17.96 175.34 17.86L175.34 17.86L175.34 19.60Q175.27 19.62 174.77 19.71Q174.28 19.80 173.68 19.80L173.68 19.80ZM184.55 19.80Q183.33 19.80 182.48 19.18Q181.64 18.56 181.64 16.97L181.64 16.97L181.64 11.38L180.23 11.38L180.34 9.47L181.71 9.47L181.96 7.27L184.16 6.97L184.16 9.47L186.25 9.47L186.14 11.38L184.18 11.38L184.18 16.96Q184.18 17.50 184.45 17.73Q184.72 17.96 185.24 17.96L185.24 17.96Q185.53 17.96 186.21 17.86L186.21 17.86L186.21 19.60Q186.14 19.62 185.64 19.71Q185.15 19.80 184.55 19.80L184.55 19.80ZM187.58 19.71L187.58 6.43L190.10 6.10L190.10 10.76Q191.65 9.34 193.00 9.34L193.00 9.34Q193.95 9.34 194.55 10.04Q195.16 10.73 195.16 11.90L195.16 11.90L195.16 19.49L192.64 19.71L192.64 12.82Q192.64 12.15 192.39 11.83Q192.15 11.50 191.75 11.50L191.75 11.50Q191.43 11.50 191.07 11.66Q190.71 11.83 190.10 12.19L190.10 12.19L190.10 19.49L187.58 19.71ZM200.50 19.84Q198.70 19.84 197.75 18.41Q196.79 16.97 196.79 14.60L196.79 14.60Q196.79 12.19 197.77 10.76Q198.74 9.34 200.59 9.34L200.59 9.34Q202.36 9.34 203.29 10.76Q204.23 12.19 204.23 14.60L204.23 14.60Q204.23 14.74 204.17 14.81Q204.12 14.87 204.12 14.89L204.12 14.89L199.31 14.89Q199.31 16.06 199.62 17.02Q199.93 17.98 200.56 17.98L200.56 17.98Q201.26 17.98 201.60 17.17Q201.94 16.36 201.96 16.33L201.96 16.33L203.87 17.05Q203.49 18.34 202.66 19.09Q201.83 19.84 200.50 19.84L200.50 19.84ZM199.31 13.43L201.74 13.43Q201.74 12.35 201.46 11.72Q201.17 11.09 200.56 11.09L200.56 11.09Q200.25 11.09 199.96 11.39Q199.67 11.70 199.49 12.24Q199.31 12.78 199.31 13.43L199.31 13.43ZM214.85 19.84Q213.84 19.84 213.35 19.43Q212.87 19.03 212.67 18.34L212.67 18.34L212.06 19.71L210.15 19.49L210.15 6.43L212.67 6.10L212.67 10.76Q213.12 10.12 213.80 9.73Q214.49 9.34 215.24 9.34L215.24 9.34Q216.41 9.34 217.08 10.58Q217.75 11.81 217.75 14.54L217.75 14.54Q217.75 19.84 214.85 19.84L214.85 19.84ZM213.91 18.04Q214.74 18.04 214.98 17.15Q215.23 16.27 215.23 14.54L215.23 14.54Q215.23 13.34 215.13 12.70Q215.03 12.06 214.79 11.78Q214.54 11.50 214.07 11.50L214.07 11.50Q213.75 11.50 213.32 11.74Q212.89 11.97 212.67 12.19L212.67 12.19L212.67 15.39Q212.67 16.83 213.02 17.43Q213.37 18.04 213.91 18.04L213.91 18.04ZM222.70 19.84Q220.90 19.84 219.94 18.41Q218.99 16.97 218.99 14.60L218.99 14.60Q218.99 12.19 219.96 10.76Q220.93 9.34 222.79 9.34L222.79 9.34Q224.55 9.34 225.49 10.76Q226.42 12.19 226.42 14.60L226.42 14.60Q226.42 14.74 226.37 14.81Q226.31 14.87 226.31 14.89L226.31 14.89L221.51 14.89Q221.51 16.06 221.81 17.02Q222.12 17.98 222.75 17.98L222.75 17.98Q223.45 17.98 223.79 17.17Q224.14 16.36 224.15 16.33L224.15 16.33L226.06 17.05Q225.68 18.34 224.86 19.09Q224.03 19.84 222.70 19.84L222.70 19.84ZM221.51 13.43L223.94 13.43Q223.94 12.35 223.65 11.72Q223.36 11.09 222.75 11.09L222.75 11.09Q222.44 11.09 222.16 11.39Q221.87 11.70 221.69 12.24Q221.51 12.78 221.51 13.43L221.51 13.43ZM230.98 19.84Q229.48 19.84 228.56 19.16Q227.65 18.49 227.38 17.28L227.38 17.28L229.34 16.63Q229.41 16.97 229.61 17.24L229.61 17.24Q230.02 17.84 230.81 17.84L230.81 17.84Q231.26 17.84 231.68 17.64Q232.09 17.44 232.09 17.03L232.09 17.03Q232.09 16.47 231.32 16.16L231.32 16.16L229.19 15.30Q228.35 14.94 227.90 14.22Q227.45 13.50 227.45 12.46L227.45 12.46Q227.45 11.48 227.93 10.78Q228.40 10.08 229.19 9.71Q229.97 9.34 230.87 9.34L230.87 9.34Q232.00 9.34 232.96 10.00Q233.91 10.66 234.23 11.79L234.23 11.79L232.15 12.44Q232.07 12.13 231.89 11.83L231.89 11.83Q231.50 11.21 230.89 11.21L230.89 11.21Q230.44 11.21 230.11 11.42Q229.79 11.63 229.79 12.02L229.79 12.02Q229.79 12.49 230.67 12.89L230.67 12.89L232.47 13.63Q233.42 14.08 233.96 14.76Q234.50 15.44 234.50 16.60L234.50 16.60Q234.50 17.64 234.00 18.37Q233.50 19.10 232.69 19.47Q231.88 19.84 230.98 19.84L230.98 19.84ZM239.53 19.80Q238.30 19.80 237.46 19.18Q236.61 18.56 236.61 16.97L236.61 16.97L236.61 11.38L235.21 11.38L235.31 9.47L236.68 9.47L236.93 7.27L239.13 6.97L239.13 9.47L241.22 9.47L241.11 11.38L239.15 11.38L239.15 16.96Q239.15 17.50 239.42 17.73Q239.69 17.96 240.21 17.96L240.21 17.96Q240.50 17.96 241.18 17.86L241.18 17.86L241.18 19.60Q241.11 19.62 240.62 19.71Q240.12 19.80 239.53 19.80L239.53 19.80ZM246.94 22.75L246.94 9.68L249.46 9.47L249.46 10.46Q250.06 9.86 250.57 9.60Q251.08 9.34 251.77 9.34L251.77 9.34Q252.70 9.34 253.25 9.86Q253.80 10.39 254.04 11.49Q254.29 12.60 254.29 14.45L254.29 14.45Q254.29 16.99 253.70 18.41Q253.12 19.84 251.46 19.84L251.46 19.84Q250.70 19.84 250.25 19.55Q249.80 19.26 249.46 18.74L249.46 18.74L249.46 22.25L246.94 22.75ZM250.56 17.91Q251.15 17.91 251.45 17.21Q251.75 16.51 251.75 14.56L251.75 14.56Q251.75 12.71 251.45 11.93Q251.15 11.16 250.54 11.16L250.54 11.16Q249.91 11.16 249.46 11.86L249.46 11.86L249.46 17.10Q249.82 17.91 250.56 17.91L250.56 17.91ZM256.03 19.71L256.03 9.68L258.55 9.47L258.55 11.11Q259.09 10.33 259.89 9.86Q260.69 9.38 261.94 9.38L261.94 9.38L261.94 11.84Q261.29 11.84 260.24 12.07Q259.18 12.29 258.55 12.85L258.55 12.85L258.55 19.49L256.03 19.71ZM265.84 8.06L263.32 8.17L263.32 5.56L265.84 5.38L265.84 8.06ZM265.82 19.49L263.30 19.71L263.30 9.68L265.82 9.47L265.82 19.49ZM271.17 19.84Q270.02 19.84 269.20 19.12Q268.38 18.40 267.97 17.21Q267.55 16.02 267.55 14.63L267.55 14.63Q267.55 13.27 267.96 12.06Q268.36 10.85 269.19 10.10Q270.02 9.34 271.22 9.34L271.22 9.34Q272.14 9.34 272.87 9.80Q273.60 10.26 274.01 11.09Q274.43 11.92 274.46 12.98L274.46 12.98L272.07 13.09Q272.07 13.01 272.01 12.51Q271.94 12.01 271.74 11.68Q271.53 11.36 271.21 11.36L271.21 11.36Q270.49 11.36 270.29 12.34Q270.09 13.32 270.09 14.54L270.09 14.54Q270.09 15.75 270.30 16.73Q270.50 17.71 271.28 17.71L271.28 17.71Q272.25 17.71 272.29 15.80L272.29 15.80L274.41 16.04Q274.18 17.91 273.47 18.87Q272.77 19.84 271.17 19.84L271.17 19.84ZM279.27 19.84Q277.47 19.84 276.52 18.41Q275.56 16.97 275.56 14.60L275.56 14.60Q275.56 12.19 276.53 10.76Q277.51 9.34 279.36 9.34L279.36 9.34Q281.12 9.34 282.06 10.76Q283.00 12.19 283.00 14.60L283.00 14.60Q283.00 14.74 282.94 14.81Q282.89 14.87 282.89 14.89L282.89 14.89L278.08 14.89Q278.08 16.06 278.39 17.02Q278.69 17.98 279.32 17.98L279.32 17.98Q280.03 17.98 280.37 17.17Q280.71 16.36 280.73 16.33L280.73 16.33L282.64 17.05Q282.26 18.34 281.43 19.09Q280.60 19.84 279.27 19.84L279.27 19.84ZM278.08 13.43L280.51 13.43Q280.51 12.35 280.22 11.72Q279.94 11.09 279.32 11.09L279.32 11.09Q279.02 11.09 278.73 11.39Q278.44 11.70 278.26 12.24Q278.08 12.78 278.08 13.43L278.08 13.43Z" transform="translate(0, 0)"/>
      </g>
    </svg>
  </g>
  <g transform="rotate(0 0 0)">
    <svg viewBoxSize="575" data-root-id="6187680495783"
      xmlns="http://www.w3.org/2000/svg" x="211.62" y="248.57" viewBox="1.350000023841858 10.5 181.2899932861328 38.93000030517578" height="38.93000030517578" width="181.2899932861328" fontUrl="http://fonts.gstatic.com/s/patuaone/v16/ZXuke1cDvLCKLDcimxBI5PNvNA9LuA.ttf" zoom="1" editorType="buyer" data-layer-role="brandName" style="position: absolute; top: 248.57px; left: 211.62px; width: 181.29px; height: 38.93px;">
      <g data-horizontal-grow="left" data-vertical-center="false" zoom="1" root="[object Object]" style="fill: rgb(236, 221, 251);">
        <path d="M21.09 33.66L21.09 41.00L1.77 41.00L1.35 37.50Q1.90 36.78 3.67 36.11L3.67 36.11L3.67 16.83Q1.94 16.20 1.35 15.40L1.35 15.40L1.77 11.89L11.64 11.89L12.06 15.40Q11.39 16.20 9.74 16.83L9.74 16.83L9.74 36.40L16.41 36.40Q16.96 34.21 17.97 33.28L17.97 33.28L21.09 33.66ZM22.36 23.16L22.78 19.91Q25.14 19.36 27.16 19.36Q29.19 19.36 30.58 19.49L30.58 19.49L30.58 36.32Q32.23 36.95 32.90 37.75L32.90 37.75L32.48 41.00L22.78 41.00L22.36 37.75Q22.95 36.95 24.68 36.32L24.68 36.32L24.68 24.59Q23.20 24.08 22.36 23.16L22.36 23.16ZM27.56 17.00Q24.04 17.00 24.04 13.81Q24.04 10.63 27.56 10.63Q31.09 10.63 31.09 13.81Q31.09 17.00 27.56 17.00ZM34.59 23.16L35.01 19.91Q37.33 19.40 39.19 19.40Q41.04 19.40 42.26 19.49L42.26 19.49L42.26 21.60Q43.32 20.71 45.07 20.14Q46.82 19.57 48.42 19.57L48.42 19.57Q52.56 19.57 54.22 21.51Q55.89 23.45 55.89 28.22L55.89 28.22L55.89 36.32Q57.53 36.95 58.21 37.75L58.21 37.75L57.79 41.00L48.09 41.00L47.66 37.75Q48.25 36.95 49.98 36.32L49.98 36.32L49.98 27.97Q49.98 25.69 49.24 24.91Q48.51 24.13 46.61 24.13Q44.71 24.13 42.81 25.48L42.81 25.48L42.81 36.32Q44.46 36.95 45.13 37.75L45.13 37.75L44.71 41.00L35.01 41.00L34.59 37.75Q35.18 36.95 36.91 36.32L36.91 36.32L36.91 24.59Q35.43 24.08 34.59 23.16L34.59 23.16ZM59.18 14.30L59.60 11.05Q61.96 10.50 63.99 10.50Q66.01 10.50 67.40 10.63L67.40 10.63L67.40 36.32Q69.05 36.95 69.72 37.75L69.72 37.75L69.30 41.00L59.60 41.00L59.18 37.75Q59.77 36.95 61.50 36.32L61.50 36.32L61.50 15.73Q60.02 15.23 59.18 14.30L59.18 14.30ZM82.00 41.00L75.25 41.00L67.78 30.07L72.42 24.04Q71.71 23.62 71.41 23.16L71.41 23.16L71.83 19.91L81.11 19.91L81.53 23.16Q80.61 24.34 78.03 25.01L78.03 25.01L73.98 29.65L78.75 35.94Q81.36 36.53 82.42 37.75L82.42 37.75L82.00 41.00ZM96.84 16.49L96.84 16.49Q95.41 16.11 93.85 16.11Q92.29 16.11 91.34 16.89Q90.39 17.67 90.39 19.09Q90.39 20.50 91.11 21.30Q91.83 22.10 93.93 22.69L93.93 22.69L97.69 23.79Q100.73 24.68 102.52 26.55Q104.31 28.43 104.31 32.06L104.31 32.06Q104.31 36.36 101.21 38.85Q98.11 41.34 93.51 41.34L93.51 41.34Q90.98 41.34 88.30 40.68Q85.63 40.03 83.85 38.85L83.85 38.85Q83.85 38.59 83.85 37.88Q83.85 37.16 84.15 35.43Q84.44 33.70 84.99 32.61L84.99 32.61L89.00 32.61Q89.67 33.91 89.80 36.11L89.80 36.11Q91.28 36.74 93.24 36.74Q95.20 36.74 96.47 35.81Q97.73 34.88 97.73 33.15L97.73 33.15Q97.73 32.35 97.60 31.82Q97.48 31.30 96.82 30.69Q96.17 30.07 94.95 29.69L94.95 29.69L90.60 28.43Q83.98 26.53 83.98 19.99L83.98 19.99Q83.98 16.15 86.76 13.86Q89.55 11.56 94.04 11.56Q98.53 11.56 102.83 13.58L102.83 13.58Q102.83 13.83 102.83 14.55Q102.83 15.27 102.54 17.00Q102.24 18.73 101.70 19.82L101.70 19.82L97.69 19.82Q96.97 18.81 96.84 16.49ZM131.14 41.25L125.65 41.25L123.50 34.59Q122.83 32.56 122.45 29.53L122.45 29.53L122.32 28.51L121.73 28.51Q121.31 31.80 120.47 34.55L120.47 34.55L118.48 41.25L112.49 41.25L107.18 24.68Q105.37 24.04 104.69 23.16L104.69 23.16L105.11 19.91L114.98 19.91L115.40 23.16Q114.64 24.04 112.83 24.68L112.83 24.68L115.28 35.43L115.87 35.43Q116.33 33.20 116.96 30.83L116.96 30.83L119.83 19.99L124.56 19.99L127.38 30.75L128.44 35.43L129.03 35.43Q130.59 28.30 131.14 25.86L131.14 25.86L131.39 24.68Q129.49 24.00 128.86 23.16L128.86 23.16L129.28 19.91L138.65 19.91L139.07 23.16Q138.35 24.13 136.41 24.76L136.41 24.76L131.14 41.25ZM140.63 23.03L140.63 23.03Q140.63 22.40 140.67 21.68L140.67 21.68Q144.59 19.57 149.11 19.57Q153.62 19.57 155.58 21.28Q157.54 22.99 157.54 26.95L157.54 26.95L157.54 35.94Q159.02 36.23 159.86 36.65L159.86 36.65L159.86 40.32Q157.71 41.34 153.70 41.34L153.70 41.34Q153.28 40.24 152.99 38.68L152.99 38.68Q151.17 41.34 146.41 41.34L146.41 41.34Q143.58 41.34 141.58 39.69Q139.57 38.05 139.57 35.22Q139.57 32.39 141.45 30.77Q143.33 29.15 147.04 29.15L147.04 29.15L151.64 29.15L151.64 27.12Q151.64 23.83 148.14 23.83L148.14 23.83Q146.83 23.83 145.98 24.08L145.98 24.08Q145.90 25.86 145.48 26.83L145.48 26.83L141.34 26.83Q140.63 25.35 140.63 23.03ZM148.22 37.03L148.22 37.03Q150.37 37.03 151.64 35.77L151.64 35.77L151.64 32.31L148.68 32.31Q145.65 32.31 145.65 34.63L145.65 34.63Q145.65 35.68 146.30 36.36Q146.95 37.03 148.22 37.03ZM160.92 23.16L161.34 19.91Q163.66 19.40 165.51 19.40Q167.37 19.40 168.59 19.49L168.59 19.49L168.59 21.55Q171.42 19.57 174.62 19.57L174.62 19.57Q178.84 19.57 180.74 21.98Q182.64 24.38 182.64 29.99L182.64 29.99Q182.64 32.98 181.75 35.26Q180.87 37.54 179.35 38.81L179.35 38.81Q176.44 41.34 172.43 41.34L172.43 41.34Q170.70 41.34 169.14 41.00L169.14 41.00L169.14 44.63Q171.63 45.30 172.35 46.19L172.35 46.19L171.93 49.43L161.34 49.43L160.92 46.19Q161.46 45.43 163.24 44.75L163.24 44.75L163.24 24.59Q161.76 24.08 160.92 23.16L160.92 23.16ZM172.01 37.03L172.01 37.03Q174.12 37.03 175.34 35.16Q176.56 33.28 176.56 29.97Q176.56 26.66 175.89 25.43Q175.22 24.21 173.44 24.21L173.44 24.21Q170.74 24.21 169.14 25.48L169.14 25.48L169.14 36.70Q170.45 37.03 172.01 37.03Z" transform="translate(0, 0)"/>
      </g>
    </svg>
  </g>
</svg>
