<svg viewBox="100 100 375 375" width="200" height="200" xmlns="http://www.w3.org/2000/svg" xmlns:xlink="http://www.w3.org/1999/xlink"><g transform="rotate(0 0 0)"><svg viewBoxSize="575" data-root-id="6131620626714" xmlns="http://www.w3.org/2000/svg" xmlns:xlink="http://www.w3.org/1999/xlink" version="1.1" id="Layer_1" x="221.125" y="130.2899932861328" viewBox="93.5999984741211 54.5 90.4000015258789 156.60000610351562" xml:space="preserve" height="230" width="132.75" preserveAspectRatio="xMinYMin" zoom="1" editorType="buyer" data-layer-role="icon" style="position: absolute; height: 230px; width: 132.75px; top: 130.29px; left: 221.125px;"><path class="st0" d="M96.7,103.6c1.7,0,3.1,1.4,3.1,3.1c0,1.7-1.4,3.1-3.1,3.1c-1.7,0-3.1-1.4-3.1-3.1    C93.7,105,95,103.6,96.7,103.6" name="Layer %{number}" zoom="1" data-layer-id="4337139726725" style="fill: rgb(255, 255, 255); fill-opacity: 1;"></path><polygon class="st0" points="118.3,188.1 117.3,188.1 117.3,161.9 96.2,131.2 96.2,109.6 97.2,109.6 97.2,130.9 118.3,161.5   " name="Layer %{number}" zoom="1" data-layer-id="6114850926732" style="fill: rgb(255, 255, 255); fill-opacity: 1;"></polygon><path class="st0" d="M112.8,105.6c1.7,0,3.1,1.4,3.1,3.1c0,1.7-1.4,3.1-3.1,3.1c-1.7,0-3.1-1.4-3.1-3.1    C109.8,107,111.1,105.6,112.8,105.6" name="Layer %{number}" zoom="1" data-layer-id="2103695726737" style="fill: rgb(255, 255, 255); fill-opacity: 1;"></path><path class="st0" d="M112.8,91.2c1.7,0,3.1,1.4,3.1,3.1c0,1.7-1.4,3.1-3.1,3.1c-1.7,0-3.1-1.4-3.1-3.1    C109.8,92.6,111.1,91.2,112.8,91.2" name="Layer %{number}" zoom="1" data-layer-id="4536904226743" style="fill: rgb(255, 255, 255); fill-opacity: 1;"></path><polygon class="st0" points="131.4,207.3 130.4,207.3 130.4,161.8 112.3,132.2 112.3,83.1 113.3,83.1 113.3,131.9 131.4,161.6       " name="Layer %{number}" zoom="1" data-layer-id="2168157226747" style="fill: rgb(255, 255, 255); fill-opacity: 1;"></polygon><path class="st1" d="M112.8,76.9c1.7,0,3.1,1.4,3.1,3.1c0,1.7-1.4,3.1-3.1,3.1c-1.7,0-3.1-1.4-3.1-3.1    C109.8,78.2,111.1,76.9,112.8,76.9" name="Layer %{number}" zoom="1" data-layer-id="7824280826752" style="fill: rgb(47, 36, 58);"></path><path class="st0" d="M112.8,83.4c-1.9,0-3.4-1.5-3.4-3.4s1.5-3.4,3.4-3.4c1.9,0,3.4,1.5,3.4,3.4S114.7,83.4,112.8,83.4z     M112.8,77.2c-1.5,0-2.7,1.2-2.7,2.7s1.2,2.7,2.7,2.7c1.5,0,2.7-1.2,2.7-2.7S114.3,77.2,112.8,77.2z" name="Layer %{number}" zoom="1" data-layer-id="9795793526756" style="fill: rgb(255, 255, 255); fill-opacity: 1;"></path><path class="st0" d="M100.8,91.7c0,1.5,1.2,2.7,2.7,2.7s2.7-1.2,2.7-2.7c0-1.5-1.2-2.7-2.7-2.7S100.8,90.3,100.8,91.7 M106.9,91.8    c0,1.9-1.5,3.4-3.4,3.4s-3.4-1.5-3.4-3.4c0-1.9,1.5-3.4,3.4-3.4S106.9,89.9,106.9,91.8" name="Layer %{number}" zoom="1" data-layer-id="1520774426762" style="fill: rgb(255, 255, 255); fill-opacity: 1;"></path><polygon class="st0" points="125.1,199.1 124.1,199.1 124.1,161.9 103,131.2 103,95.2 104,95.2 104,130.9 125.1,161.5   " name="Layer %{number}" zoom="1" data-layer-id="2072937326767" style="fill: rgb(255, 255, 255); fill-opacity: 1;"></polygon><path class="st0" d="M180.9,103.6c-1.7,0-3.1,1.4-3.1,3.1c0,1.7,1.4,3.1,3.1,3.1s3.1-1.4,3.1-3.1    C183.9,105,182.6,103.6,180.9,103.6" name="Layer %{number}" zoom="1" data-layer-id="1481511626774" style="fill: rgb(255, 255, 255); fill-opacity: 1;"></path><polygon class="st0" points="160.3,190.1 159.3,190.1 159.3,161.5 159.4,161.4 180.4,130.9 180.4,109.6 181.4,109.6 181.4,131.2     181.3,131.3 160.3,161.9   " name="Layer %{number}" zoom="1" data-layer-id="4796065726779" style="fill: rgb(255, 255, 255); fill-opacity: 1;"></polygon><path class="st0" d="M168.8,93.6c-1.7,0-3.1,1.4-3.1,3.1c0,1.7,1.4,3.1,3.1,3.1s3.1-1.4,3.1-3.1C171.8,95,170.4,93.6,168.8,93.6" name="Layer %{number}" zoom="1" data-layer-id="5438333326783" style="fill: rgb(255, 255, 255); fill-opacity: 1;"></path><path class="st0" d="M168.8,64.9c-1.7,0-3.1,1.4-3.1,3.1c0,1.7,1.4,3.1,3.1,3.1s3.1-1.4,3.1-3.1C171.8,66.2,170.4,64.9,168.8,64.9    " name="Layer %{number}" zoom="1" data-layer-id="4593490126788" style="fill: rgb(255, 255, 255); fill-opacity: 1;"></path><path class="st0" d="M168.8,79.2c-1.7,0-3.1,1.4-3.1,3.1c0,1.7,1.4,3.1,3.1,3.1s3.1-1.4,3.1-3.1C171.8,80.6,170.4,79.2,168.8,79.2    " name="Layer %{number}" zoom="1" data-layer-id="5053922326792" style="fill: rgb(255, 255, 255); fill-opacity: 1;"></path><polygon class="st0" points="148.2,199.1 147.2,199.1 147.2,161.5 147.3,161.4 168.3,130.9 168.3,67.4 169.3,67.4 169.3,131.2     169.2,131.3 148.2,161.9   " name="Layer %{number}" zoom="1" data-layer-id="1395080326797" style="fill: rgb(255, 255, 255); fill-opacity: 1;"></polygon><path class="st0" d="M177.6,91.7c0-1.5-1.2-2.7-2.7-2.7c-1.5,0-2.7,1.2-2.7,2.7c0,1.5,1.2,2.7,2.7,2.7    C176.4,94.4,177.6,93.2,177.6,91.7 M171.4,91.8c0-1.9,1.5-3.4,3.4-3.4s3.4,1.5,3.4,3.4c0,1.9-1.5,3.4-3.4,3.4    S171.5,93.7,171.4,91.8" name="Layer %{number}" zoom="1" data-layer-id="7469504926801" style="fill: rgb(255, 255, 255); fill-opacity: 1;"></path><polygon class="st0" points="154.2,203.1 153.2,203.1 153.2,161.5 153.3,161.4 174.3,130.9 174.3,94.9 175.3,94.9 175.3,131.2     175.2,131.3 154.2,161.9   " name="Layer %{number}" zoom="1" data-layer-id="0311671726806" style="fill: rgb(255, 255, 255); fill-opacity: 1;"></polygon><polygon class="st0" points="137,210.1 136,210.1 136,161.8 127.8,127.1 127.8,55.5 128.8,55.5 128.8,127.1 137,161.7   " name="Layer %{number}" zoom="1" data-layer-id="4899021326811" style="fill: rgb(255, 255, 255); fill-opacity: 1;"></polygon><path class="st0" d="M128.2,54.5c1.9,0,3.4,1.5,3.4,3.4c0,1.9-1.5,3.4-3.4,3.4c-1.9,0-3.4-1.5-3.4-3.4     C124.8,56,126.3,54.5,128.2,54.5" name="Layer %{number}" zoom="1" data-layer-id="7493798226815" style="fill: rgb(255, 255, 255); fill-opacity: 1;"></path><path class="st0" d="M128.2,72.3c1.9,0,3.4,1.5,3.4,3.4c0,1.9-1.5,3.4-3.4,3.4c-1.9,0-3.4-1.5-3.4-3.4     C124.8,73.9,126.3,72.3,128.2,72.3" name="Layer %{number}" zoom="1" data-layer-id="2205666926819" style="fill: rgb(255, 255, 255); fill-opacity: 1;"></path><path class="st0" d="M128.2,90.2c1.9,0,3.4,1.5,3.4,3.4c0,1.9-1.5,3.4-3.4,3.4c-1.9,0-3.4-1.5-3.4-3.4     C124.8,91.7,126.3,90.2,128.2,90.2" name="Layer %{number}" zoom="1" data-layer-id="6536958826823" style="fill: rgb(255, 255, 255); fill-opacity: 1;"></path><path class="st0" d="M128.2,108c1.9,0,3.4,1.5,3.4,3.4c0,1.9-1.5,3.4-3.4,3.4c-1.9,0-3.4-1.5-3.4-3.4     C124.8,109.6,126.3,108,128.2,108" name="Layer %{number}" zoom="1" data-layer-id="3118578226829" style="fill: rgb(255, 255, 255); fill-opacity: 1;"></path><polygon class="st0" points="142.3,211.1 141.3,211.1 141.3,162.6 141.3,162.6 149.5,138 149.5,102 150.5,102 150.4,138.3    142.3,162.8  " name="Layer %{number}" zoom="1" data-layer-id="5923351426835" style="fill: rgb(255, 255, 255); fill-opacity: 1;"></polygon><path class="st1" d="M150,101.3c-1.9,0-3.4,1.5-3.4,3.4c0,1.9,1.5,3.4,3.4,3.4c1.9,0,3.4-1.5,3.4-3.4    C153.4,102.8,151.9,101.3,150,101.3" name="Layer %{number}" zoom="1" data-layer-id="2345706726841" style="fill: rgb(47, 36, 58);"></path><path class="st0" d="M150,108.5c-2.1,0-3.8-1.7-3.8-3.8c0-2.1,1.7-3.8,3.8-3.8s3.8,1.7,3.8,3.8C153.8,106.8,152.1,108.5,150,108.5    z M150,101.7c-1.7,0-3,1.4-3,3c0,1.7,1.4,3,3,3s3-1.4,3-3C153,103,151.7,101.7,150,101.7z" name="Layer %{number}" zoom="1" data-layer-id="2225461926847" style="fill: rgb(255, 255, 255); fill-opacity: 1;"></path><path class="st1" d="M150,119c-1.9,0-3.4,1.5-3.4,3.4c0,1.9,1.5,3.4,3.4,3.4c1.9,0,3.4-1.5,3.4-3.4C153.4,120.5,151.9,119,150,119    " name="Layer %{number}" zoom="1" data-layer-id="2317959626852" style="fill: rgb(47, 36, 58);"></path><path class="st0" d="M150,126.2c-2.1,0-3.8-1.7-3.8-3.8c0-2.1,1.7-3.8,3.8-3.8s3.8,1.7,3.8,3.8C153.8,124.5,152.1,126.2,150,126.2    z M150,119.4c-1.7,0-3,1.4-3,3c0,1.7,1.4,3,3,3s3-1.4,3-3C153,120.7,151.7,119.4,150,119.4z" name="Layer %{number}" zoom="1" data-layer-id="2463062426857" style="fill: rgb(255, 255, 255); fill-opacity: 1;"></path></svg></g><g transform="rotate(0 0 0)"></g><g transform="rotate(0 0 0)"><svg viewBoxSize="575" data-root-id="4899543126863" xmlns="http://www.w3.org/2000/svg" y="375.2899932861328" viewBox="7.789999961853027 18.8799991607666 309.75 52.77000427246094" x="132.62500244140625" height="52.77000427246094" width="309.75" fontUrl="http://fonts.gstatic.com/s/cantarell/v15/B50NF7ZDq37KMUvlO01Ji6hqHK-CLA.ttf" zoom="1" editorType="buyer" data-layer-role="brandName" style="position: absolute; top: 375.29px; width: 309.75px; height: 52.77px; left: 132.625px;"><g data-horizontal-grow="center" zoom="1" root="[object Object]" style="fill: rgb(255, 255, 255); fill-opacity: 1;"><path d="M7.79 57.39L7.79 19.23L14.23 19.23L26.48 42.38L38.91 19.23L44.96 19.23L44.96 57.39L40.39 57.39L40.39 25.78L28.65 46.46L24.09 46.46L12.35 25.78L12.35 57.39L7.79 57.39ZM64.21 30.35L64.21 30.35Q67.17 30.35 69.22 31.03Q71.27 31.72 72.39 33.03Q73.50 34.35 73.99 35.96Q74.47 37.57 74.47 39.67L74.47 39.67L74.47 57.39L71.35 57.39L70.33 54.97Q67.08 57.93 62.87 57.93L62.87 57.93Q59.11 57.93 56.50 55.66Q53.90 53.39 53.90 50.35L53.90 50.35Q53.90 48.74 54.49 47.45Q55.08 46.16 56.20 45.31Q57.31 44.45 58.73 43.84Q60.16 43.24 62.05 42.92Q63.94 42.59 65.85 42.46Q67.76 42.32 70.04 42.32L70.04 42.32L70.04 40.23Q70.04 39.32 69.97 38.65Q69.90 37.97 69.53 37.03Q69.15 36.09 68.51 35.49Q67.86 34.89 66.57 34.44Q65.29 34.00 63.51 34.00L63.51 34.00Q60.77 34.00 56.42 35.21L56.42 35.21L55.59 31.98Q60.00 30.35 64.21 30.35ZM70.04 51.75L70.04 45.65L68.40 45.65Q66.87 45.65 65.74 45.71Q64.61 45.76 63.10 46.02Q61.58 46.27 60.61 46.73Q59.65 47.19 58.96 48.06Q58.28 48.93 58.28 50.14L58.28 50.14Q58.28 51.83 59.98 53.15Q61.69 54.46 64.05 54.46L64.05 54.46Q67.51 54.46 70.04 51.75L70.04 51.75ZM97.62 53.93L98.24 56.93Q94.34 57.93 92.17 57.93Q89.99 57.93 88.49 57.23Q86.98 56.53 86.21 55.24Q85.43 53.95 85.09 52.46Q84.76 50.97 84.76 49.04L84.76 49.04L84.76 34.32L81.18 34.32L81.18 30.86L84.76 30.86L84.76 23.26L89.16 23.26L89.16 30.86L97.24 30.86L97.24 34.32L89.16 34.32L89.16 48.98Q89.16 54.49 93.51 54.49L93.51 54.49Q94.29 54.49 97.62 53.93L97.62 53.93ZM108.04 30.86L108.87 32.84Q112.23 30.35 116.28 30.35L116.28 30.35Q119.08 30.35 121.36 31.39L121.36 31.39L120.02 34.91Q117.92 34.11 115.67 34.11L115.67 34.11Q112.31 34.11 109.36 35.96L109.36 35.96L109.36 57.39L104.95 57.39L104.95 30.86L108.04 30.86ZM126.06 24.30L126.06 19.23L131.27 19.23L131.27 24.30L126.06 24.30ZM126.46 57.39L126.46 30.86L130.87 30.86L130.87 57.39L126.46 57.39ZM147.06 44.37L137.45 30.86L142.55 30.86L150.04 41.38L157.27 30.86L161.97 30.86L152.19 44.39L161.46 57.39L156.35 57.39L149.24 47.43L142.47 57.39L137.77 57.39L147.06 44.37ZM200.93 18.88L200.93 18.88Q205.34 18.88 210.41 20.41L210.41 20.41L208.94 24.57Q204.10 23.18 200.56 23.18L200.56 23.18Q196.58 23.18 193.83 24.85Q191.08 26.53 191.08 29.19L191.08 29.19Q191.08 30.67 191.96 31.82Q192.85 32.98 194.30 33.70Q195.75 34.43 197.60 35.14Q199.46 35.85 201.38 36.44Q203.30 37.03 205.15 37.95Q207.00 38.86 208.45 39.95Q209.90 41.04 210.79 42.78Q211.67 44.53 211.67 46.73L211.67 46.73Q211.67 48.26 211.19 49.78Q210.71 51.29 209.58 52.78Q208.45 54.27 206.79 55.40Q205.12 56.53 202.58 57.23Q200.05 57.93 196.93 57.93Q193.82 57.93 191.20 57.28Q188.58 56.64 185.33 55.35L185.33 55.35L186.89 50.92Q193.60 53.42 197.50 53.42L197.50 53.42Q201.58 53.42 204.14 51.78Q206.71 50.14 206.71 47.40L206.71 47.40Q206.71 45.57 205.57 44.24Q204.42 42.92 202.61 42.10Q200.80 41.28 198.60 40.57Q196.39 39.85 194.21 39.03Q192.02 38.22 190.20 37.14Q188.39 36.07 187.25 34.24Q186.11 32.41 186.11 29.94L186.11 29.94Q186.11 27.74 187.17 25.73Q188.23 23.71 190.11 22.20Q191.99 20.68 194.81 19.78Q197.63 18.88 200.93 18.88ZM226.47 57.39L217.05 30.86L221.75 30.86L228.94 53.12L235.76 30.86L240.09 30.86L247.18 53.09L254.38 30.86L259.07 30.86L249.38 57.39L244.95 57.39L237.89 35.88L230.90 57.39L226.47 57.39ZM274.30 30.35L274.30 30.35Q277.26 30.35 279.31 31.03Q281.36 31.72 282.48 33.03Q283.59 34.35 284.08 35.96Q284.56 37.57 284.56 39.67L284.56 39.67L284.56 57.39L281.45 57.39L280.42 54.97Q277.18 57.93 272.96 57.93L272.96 57.93Q269.20 57.93 266.59 55.66Q263.99 53.39 263.99 50.35L263.99 50.35Q263.99 48.74 264.58 47.45Q265.17 46.16 266.29 45.31Q267.40 44.45 268.82 43.84Q270.25 43.24 272.14 42.92Q274.03 42.59 275.94 42.46Q277.85 42.32 280.13 42.32L280.13 42.32L280.13 40.23Q280.13 39.32 280.06 38.65Q280.00 37.97 279.62 37.03Q279.24 36.09 278.60 35.49Q277.95 34.89 276.67 34.44Q275.38 34.00 273.60 34.00L273.60 34.00Q270.86 34.00 266.51 35.21L266.51 35.21L265.68 31.98Q270.09 30.35 274.30 30.35ZM280.13 51.75L280.13 45.65L278.49 45.65Q276.96 45.65 275.83 45.71Q274.70 45.76 273.19 46.02Q271.67 46.27 270.70 46.73Q269.74 47.19 269.05 48.06Q268.37 48.93 268.37 50.14L268.37 50.14Q268.37 51.83 270.07 53.15Q271.78 54.46 274.14 54.46L274.14 54.46Q277.60 54.46 280.13 51.75L280.13 51.75ZM305.83 30.35L305.83 30.35Q307.47 30.35 309.03 30.74Q310.58 31.13 312.15 32.11Q313.73 33.09 314.89 34.58Q316.06 36.07 316.80 38.46Q317.54 40.85 317.54 43.83L317.54 43.83Q317.54 50.35 314.06 54.14Q310.58 57.93 305.05 57.93L305.05 57.93Q301.88 57.93 298.63 56.50L298.63 56.50L298.63 71.65L294.23 71.65L294.23 30.86L297.29 30.86L298.02 32.55Q301.77 30.35 305.83 30.35ZM304.33 34.00L304.33 34.00Q301.40 34.00 298.63 35.48L298.63 35.48L298.63 53.17Q301.51 54.46 304.41 54.46L304.41 54.46Q305.64 54.46 306.80 54.19Q307.95 53.93 309.15 53.21Q310.34 52.50 311.23 51.43Q312.11 50.35 312.68 48.58Q313.24 46.81 313.24 44.58L313.24 44.58Q313.24 42.06 312.65 40.12Q312.06 38.19 311.15 37.06Q310.23 35.93 309.00 35.21Q307.76 34.48 306.64 34.24Q305.51 34.00 304.33 34.00Z" transform="translate(0, 0)"></path></g></svg></g></svg>
